<svg width="24" height="24" viewBox="0 0 24 24" fill="none" xmlns="http://www.w3.org/2000/svg">
<circle cx="12" cy="12" r="12" fill="#0167CD"/>
<path d="M15.7455 11.4481L10.1725 6.1381C10.0795 6.04945 9.95596 6 9.82749 6C9.69902 6 9.57548 6.04945 9.48249 6.1381L9.47649 6.1441C9.43125 6.18707 9.39523 6.23879 9.37062 6.29613C9.34601 6.35346 9.33331 6.4152 9.33331 6.4776C9.33331 6.53999 9.34601 6.60173 9.37062 6.65906C9.39523 6.7164 9.43125 6.76812 9.47649 6.81109L14.7245 11.8111L9.47649 16.8091C9.43125 16.8521 9.39523 16.9038 9.37062 16.9611C9.34601 17.0185 9.33331 17.0802 9.33331 17.1426C9.33331 17.205 9.34601 17.2667 9.37062 17.3241C9.39523 17.3814 9.43125 17.4331 9.47649 17.4761L9.48249 17.4821C9.57548 17.5707 9.69902 17.6202 9.82749 17.6202C9.95596 17.6202 10.0795 17.5707 10.1725 17.4821L15.7455 12.1721C15.7945 12.1254 15.8335 12.0692 15.8602 12.007C15.8868 11.9448 15.9006 11.8778 15.9006 11.8101C15.9006 11.7424 15.8868 11.6754 15.8602 11.6132C15.8335 11.551 15.7945 11.4948 15.7455 11.4481Z" fill="white"/>
</svg>
