<svg width="24" height="24" viewBox="0 0 24 24" fill="none" xmlns="http://www.w3.org/2000/svg">
<circle cx="12" cy="12" r="12" transform="matrix(-1 0 0 1 24 0)" fill="#0167CD"/>
<path d="M8.25451 11.4481L13.8275 6.1381C13.9205 6.04945 14.044 6 14.1725 6C14.301 6 14.4245 6.04945 14.5175 6.1381L14.5235 6.1441C14.5687 6.18707 14.6048 6.23879 14.6294 6.29613C14.654 6.35346 14.6667 6.4152 14.6667 6.4776C14.6667 6.53999 14.654 6.60173 14.6294 6.65906C14.6048 6.7164 14.5687 6.76812 14.5235 6.81109L9.27551 11.8111L14.5235 16.8091C14.5687 16.8521 14.6048 16.9038 14.6294 16.9611C14.654 17.0185 14.6667 17.0802 14.6667 17.1426C14.6667 17.205 14.654 17.2667 14.6294 17.3241C14.6048 17.3814 14.5687 17.4331 14.5235 17.4761L14.5175 17.4821C14.4245 17.5707 14.301 17.6202 14.1725 17.6202C14.044 17.6202 13.9205 17.5707 13.8275 17.4821L8.25451 12.1721C8.2055 12.1254 8.16648 12.0692 8.13982 12.007C8.11316 11.9448 8.09941 11.8778 8.09941 11.8101C8.09941 11.7424 8.11316 11.6754 8.13982 11.6132C8.16648 11.551 8.2055 11.4948 8.25451 11.4481Z" fill="white"/>
</svg>
