<svg width="25" height="25" viewBox="0 0 25 25" fill="none" xmlns="http://www.w3.org/2000/svg">
<circle cx="12.5" cy="12.5" r="12.5" fill="#0167CD"/>
<path fill-rule="evenodd" clip-rule="evenodd" d="M12.5 5C12.6705 5 12.834 5.06773 12.9546 5.18829C13.0751 5.30885 13.1429 5.47236 13.1429 5.64286V11.8571H19.3571C19.5276 11.8571 19.6912 11.9249 19.8117 12.0454C19.9323 12.166 20 12.3295 20 12.5C20 12.6705 19.9323 12.834 19.8117 12.9546C19.6912 13.0751 19.5276 13.1429 19.3571 13.1429H13.1429V19.3571C13.1429 19.5276 13.0751 19.6912 12.9546 19.8117C12.834 19.9323 12.6705 20 12.5 20C12.3295 20 12.166 19.9323 12.0454 19.8117C11.9249 19.6912 11.8571 19.5276 11.8571 19.3571V13.1429H5.64286C5.47236 13.1429 5.30885 13.0751 5.18829 12.9546C5.06773 12.834 5 12.6705 5 12.5C5 12.3295 5.06773 12.166 5.18829 12.0454C5.30885 11.9249 5.47236 11.8571 5.64286 11.8571H11.8571V5.64286C11.8571 5.47236 11.9249 5.30885 12.0454 5.18829C12.166 5.06773 12.3295 5 12.5 5Z" fill="white"/>
</svg>
