<svg width="22" height="16" viewBox="0 0 22 16" fill="none" xmlns="http://www.w3.org/2000/svg">
<g clip-path="url(#clip0_55_624)">
<path d="M5.61108 15.9241V7.9165L3.11519 5.64456L0.877075 4.38379V14.511C0.877075 15.2929 1.51376 15.9241 2.29731 15.9241H5.61108Z" fill="#4285F4"/>
<path d="M16.9726 15.924H20.2864C21.0723 15.924 21.7066 15.2904 21.7066 14.5109V4.38379L19.1716 5.82785L16.9726 7.91642V15.924Z" fill="#34A853"/>
<path d="M5.61046 7.91635L5.27084 4.78754L5.61046 1.79297L11.2912 6.03228L16.972 1.79297L17.3519 4.62587L16.972 7.91635L11.2912 12.1557L5.61046 7.91635Z" fill="#EA4335"/>
<path d="M16.9727 1.79207V7.91545L21.7067 4.38275V2.4986C21.7067 0.751109 19.7018 -0.245087 18.2983 0.802922L16.9727 1.79207Z" fill="#FBBC04"/>
<path d="M0.876953 4.38278L3.05421 6.00762L5.61095 7.91549V1.79211L4.28535 0.802959C2.87935 -0.24513 0.876953 0.751145 0.876953 2.49855V4.3827V4.38278Z" fill="#C5221F"/>
</g>
<defs>
<clipPath id="clip0_55_624">
<rect width="20.8333" height="15.625" fill="white" transform="translate(0.875 0.375)"/>
</clipPath>
</defs>
</svg>
