<svg width="24" height="25" viewBox="0 0 24 25" fill="none" xmlns="http://www.w3.org/2000/svg">
<g clip-path="url(#clip0_55_637)">
<path d="M18.375 0.25H5.625C2.5184 0.25 0 2.7684 0 5.875V18.625C0 21.7316 2.5184 24.25 5.625 24.25H18.375C21.4816 24.25 24 21.7316 24 18.625V5.875C24 2.7684 21.4816 0.25 18.375 0.25Z" fill="url(#paint0_radial_55_637)"/>
<path d="M18.375 0.25H5.625C2.5184 0.25 0 2.7684 0 5.875V18.625C0 21.7316 2.5184 24.25 5.625 24.25H18.375C21.4816 24.25 24 21.7316 24 18.625V5.875C24 2.7684 21.4816 0.25 18.375 0.25Z" fill="url(#paint1_radial_55_637)"/>
<path d="M12.0008 2.875C9.45478 2.875 9.13519 2.88616 8.13525 2.93163C7.13719 2.97737 6.45591 3.13534 5.85984 3.36719C5.24316 3.60662 4.72013 3.92697 4.19906 4.44822C3.67753 4.96937 3.35719 5.49241 3.117 6.10881C2.8845 6.70506 2.72634 7.38662 2.68144 8.38422C2.63672 9.38425 2.625 9.70394 2.625 12.2501C2.625 14.7962 2.63625 15.1148 2.68163 16.1147C2.72756 17.1128 2.88553 17.7941 3.11719 18.3902C3.35681 19.0068 3.67716 19.5299 4.19841 20.0509C4.71938 20.5725 5.24241 20.8936 5.85862 21.133C6.45516 21.3648 7.13653 21.5228 8.13441 21.5686C9.13444 21.614 9.45375 21.6252 11.9997 21.6252C14.5461 21.6252 14.8646 21.614 15.8646 21.5686C16.8626 21.5228 17.5447 21.3648 18.1412 21.133C18.7576 20.8936 19.2799 20.5725 19.8007 20.0509C20.3223 19.5299 20.6425 19.0068 20.8828 18.3904C21.1133 17.7941 21.2715 17.1126 21.3184 16.1149C21.3633 15.115 21.375 14.7962 21.375 12.2501C21.375 9.70394 21.3633 9.38444 21.3184 8.38441C21.2715 7.38634 21.1133 6.70516 20.8828 6.10909C20.6425 5.49241 20.3223 4.96937 19.8007 4.44822C19.2793 3.92678 18.7578 3.60644 18.1406 3.36728C17.543 3.13534 16.8613 2.97728 15.8632 2.93163C14.8632 2.88616 14.5448 2.875 11.9979 2.875H12.0008ZM11.1598 4.56447C11.4095 4.56409 11.688 4.56447 12.0008 4.56447C14.5041 4.56447 14.8007 4.57347 15.7892 4.61837C16.7032 4.66019 17.1994 4.81291 17.5298 4.94125C17.9674 5.11112 18.2793 5.31428 18.6072 5.6425C18.9353 5.97062 19.1384 6.28309 19.3088 6.72062C19.4371 7.05062 19.59 7.54675 19.6316 8.46081C19.6765 9.44912 19.6863 9.74594 19.6863 12.2479C19.6863 14.7499 19.6765 15.0468 19.6316 16.0351C19.5898 16.9491 19.4371 17.4452 19.3088 17.7753C19.1389 18.2129 18.9353 18.5244 18.6072 18.8523C18.2791 19.1805 17.9676 19.3835 17.5298 19.5535C17.1997 19.6824 16.7032 19.8347 15.7892 19.8766C14.8009 19.9215 14.5041 19.9312 12.0008 19.9312C9.49753 19.9312 9.20081 19.9215 8.21259 19.8766C7.29853 19.8344 6.80241 19.6817 6.47166 19.5533C6.03422 19.3833 5.72166 19.1803 5.39353 18.8522C5.06541 18.524 4.86234 18.2123 4.692 17.7746C4.56366 17.4445 4.41075 16.9484 4.36913 16.0343C4.32422 15.046 4.31522 14.7492 4.31522 12.2456C4.31522 9.74209 4.32422 9.44678 4.36913 8.45847C4.41094 7.54441 4.56366 7.04828 4.692 6.71781C4.86197 6.28028 5.06541 5.96781 5.39363 5.63969C5.72175 5.31156 6.03422 5.10841 6.47175 4.93816C6.80222 4.80925 7.29853 4.65691 8.21259 4.61491C9.07744 4.57581 9.41259 4.56409 11.1598 4.56212V4.56447ZM17.0052 6.12109C16.3841 6.12109 15.8802 6.62453 15.8802 7.24572C15.8802 7.86681 16.3841 8.37072 17.0052 8.37072C17.6263 8.37072 18.1302 7.86681 18.1302 7.24572C18.1302 6.62462 17.6263 6.12072 17.0052 6.12072V6.12109ZM12.0008 7.43556C9.34209 7.43556 7.18641 9.59125 7.18641 12.2501C7.18641 14.9089 9.34209 17.0636 12.0008 17.0636C14.6597 17.0636 16.8146 14.9089 16.8146 12.2501C16.8146 9.59134 14.6595 7.43556 12.0007 7.43556H12.0008ZM12.0008 9.12503C13.7267 9.12503 15.1259 10.5241 15.1259 12.2501C15.1259 13.9759 13.7267 15.3752 12.0008 15.3752C10.2749 15.3752 8.87588 13.9759 8.87588 12.2501C8.87588 10.5241 10.2749 9.12503 12.0008 9.12503Z" fill="white"/>
</g>
<defs>
<radialGradient id="paint0_radial_55_637" cx="0" cy="0" r="1" gradientUnits="userSpaceOnUse" gradientTransform="translate(6.375 26.0985) rotate(-90) scale(23.7858 22.1227)">
<stop stop-color="#FFDD55"/>
<stop offset="0.1" stop-color="#FFDD55"/>
<stop offset="0.5" stop-color="#FF543E"/>
<stop offset="1" stop-color="#C837AB"/>
</radialGradient>
<radialGradient id="paint1_radial_55_637" cx="0" cy="0" r="1" gradientUnits="userSpaceOnUse" gradientTransform="translate(-4.02009 1.97884) rotate(78.681) scale(10.6324 43.827)">
<stop stop-color="#3771C8"/>
<stop offset="0.128" stop-color="#3771C8"/>
<stop offset="1" stop-color="#6600FF" stop-opacity="0"/>
</radialGradient>
<clipPath id="clip0_55_637">
<rect width="24" height="24" fill="white" transform="translate(0 0.25)"/>
</clipPath>
</defs>
</svg>
