<svg width="221" height="67" viewBox="0 0 221 67" fill="none" xmlns="http://www.w3.org/2000/svg">
<g clip-path="url(#clip0_89_970)">
<path d="M137.074 52.3425C124.246 61.8393 105.654 66.9063 89.6461 66.9063C67.2007 66.9063 46.994 58.5676 31.7069 44.6987C30.5058 43.6081 31.582 42.1218 33.0233 42.9711C49.521 52.6127 69.9199 58.4132 90.9913 58.4132C105.202 58.4132 120.835 55.4599 135.21 49.3313C137.381 48.4048 139.197 50.7597 137.074 52.3425Z" fill="#FF9900"/>
<path d="M142.406 46.214C140.773 44.11 131.568 45.2199 127.436 45.7121C126.178 45.8666 125.985 44.7663 127.119 43.9749C134.451 38.7922 146.48 40.2881 147.883 42.0254C149.286 43.7722 147.518 55.8846 140.629 61.6657C139.572 62.5536 138.563 62.0807 139.034 60.9032C140.581 57.0234 144.049 48.3276 142.406 46.214Z" fill="#FF9900"/>
<path d="M127.725 7.38711V2.34916C127.725 1.58671 128.301 1.0752 128.993 1.0752H151.448C152.169 1.0752 152.745 1.59636 152.745 2.34916V6.66327C152.736 7.38711 152.13 8.33294 151.054 9.82888L139.418 26.5159C143.742 26.4097 148.306 27.0564 152.226 29.2762C153.11 29.778 153.35 30.5115 153.418 31.2354V36.6111C153.418 37.3446 152.611 38.2036 151.765 37.7596C144.857 34.1211 135.68 33.7254 128.042 37.7982C127.263 38.2229 126.447 37.3736 126.447 36.6401V31.5346C126.447 30.7142 126.456 29.3148 127.273 28.0698L140.754 8.65143H129.022C128.301 8.65143 127.725 8.13992 127.725 7.38711Z" fill="#101010"/>
<path d="M45.8122 38.8209H38.9805C38.3272 38.7727 37.8083 38.2804 37.7603 37.6531V2.43569C37.7603 1.73115 38.3464 1.17137 39.0766 1.17137H45.447C46.11 1.20031 46.6385 1.71184 46.6866 2.34882V6.95248H46.8115C48.4737 2.50324 51.5965 0.428223 55.805 0.428223C60.0808 0.428223 62.7519 2.50324 64.6736 6.95248C66.3263 2.50324 70.0832 0.428223 74.1092 0.428223C76.9725 0.428223 80.1049 1.61533 82.017 4.27907C84.1789 7.24201 83.7369 11.5465 83.7369 15.3201L83.7273 37.547C83.7273 38.2515 83.1412 38.8209 82.4109 38.8209H75.5889C74.9067 38.7727 74.359 38.2225 74.359 37.547V18.8814C74.359 17.3951 74.4935 13.6891 74.1668 12.28C73.6576 9.91541 72.1298 9.24947 70.1505 9.24947C68.4978 9.24947 66.7683 10.3594 66.0669 12.1352C65.3655 13.911 65.4327 16.8836 65.4327 18.8814V37.547C65.4327 38.2515 64.8466 38.8209 64.1164 38.8209H57.2943C56.6025 38.7727 56.0644 38.2225 56.0644 37.547L56.0548 18.8814C56.0548 14.9534 56.6986 9.17226 51.8463 9.17226C46.9364 9.17226 47.1285 14.8086 47.1285 18.8814V37.547C47.1285 38.2515 46.5424 38.8209 45.8122 38.8209Z" fill="#101010"/>
<path d="M172.077 0.428223C182.214 0.428223 187.701 9.17226 187.701 20.2905C187.701 31.0324 181.638 39.5544 172.077 39.5544C162.123 39.5544 156.704 30.8104 156.704 19.9141C156.704 8.95028 162.19 0.428223 172.077 0.428223ZM172.135 7.61841C167.1 7.61841 166.783 14.5094 166.783 18.8042C166.783 23.1087 166.716 32.2967 172.077 32.2967C177.372 32.2967 177.622 24.8845 177.622 20.3677C177.622 17.3951 177.497 13.8435 176.603 11.0253C175.834 8.57389 174.307 7.61841 172.135 7.61841Z" fill="#101010"/>
<path d="M200.845 38.8209H194.042C193.36 38.7727 192.813 38.2225 192.813 37.547L192.803 2.31987C192.861 1.67323 193.427 1.17137 194.119 1.17137H200.451C201.047 1.20031 201.537 1.60568 201.672 2.1558V7.5412H201.796C203.709 2.72522 206.389 0.428223 211.107 0.428223C214.172 0.428223 217.16 1.53812 219.082 4.57826C220.869 7.39643 220.869 12.1352 220.869 15.5421V37.711C220.792 38.3287 220.226 38.8209 219.553 38.8209H212.702C212.078 38.7727 211.559 38.3094 211.491 37.711V18.5822C211.491 14.7314 211.933 9.09505 207.216 9.09505C205.553 9.09505 204.026 10.2146 203.267 11.9132C202.306 14.0655 202.181 16.208 202.181 18.5822V37.547C202.171 38.2515 201.575 38.8209 200.845 38.8209Z" fill="#101010"/>
<path d="M109.824 21.9992V20.5129C104.885 20.5129 99.6678 21.5745 99.6678 27.4232C99.6678 30.3861 101.196 32.3936 103.819 32.3936C105.74 32.3936 107.46 31.2065 108.546 29.2762C109.891 26.902 109.824 24.6726 109.824 21.9992ZM116.713 38.7248C116.262 39.1301 115.608 39.1591 115.099 38.8889C112.831 36.9972 112.428 36.119 111.179 34.3142C107.431 38.1554 104.78 39.3039 99.9176 39.3039C94.1717 39.3039 89.6942 35.7426 89.6942 28.6103C89.6942 23.0415 92.7016 19.2486 96.9774 17.3955C100.686 15.7548 105.865 15.4653 109.824 15.0117V14.1237C109.824 12.4927 109.949 10.5624 108.998 9.15335C108.162 7.88904 106.567 7.36787 105.164 7.36787C102.56 7.36787 100.235 8.70939 99.6678 11.489C99.5525 12.1066 99.1009 12.7147 98.4859 12.7436L91.8561 12.0294C91.2988 11.904 90.6838 11.4503 90.8376 10.5914C92.3653 2.52294 99.6197 0.0908203 106.115 0.0908203C109.44 0.0908203 113.783 0.978736 116.406 3.50736C119.73 6.62472 119.413 10.7844 119.413 15.3109V26.0044C119.413 29.2183 120.739 30.6274 121.988 32.3646C122.43 32.9823 122.526 33.7254 121.969 34.1887C120.576 35.3565 118.097 37.528 116.732 38.7441L116.713 38.7248Z" fill="#101010"/>
<path d="M20.2632 21.9992V20.5129C15.3244 20.5129 10.107 21.5745 10.107 27.4232C10.107 30.3861 11.6348 32.3936 14.2579 32.3936C16.1796 32.3936 17.8995 31.2065 18.9853 29.2762C20.3304 26.902 20.2632 24.6726 20.2632 21.9992ZM27.1525 38.7248C26.7009 39.1301 26.0475 39.1591 25.5382 38.8889C23.2706 36.9972 22.8671 36.119 21.618 34.3142C17.8707 38.1554 15.2187 39.3039 10.3568 39.3039C4.61094 39.3039 0.133392 35.7426 0.133392 28.6103C0.133392 23.0415 3.14085 19.2486 7.41663 17.3955C11.1255 15.7548 16.3045 15.4653 20.2632 15.0117V14.1237C20.2632 12.4927 20.3881 10.5624 19.4369 9.15335C18.6009 7.88904 17.0059 7.36787 15.6031 7.36787C12.9992 7.36787 10.6739 8.70939 10.107 11.489C9.9917 12.1066 9.54011 12.7147 8.92516 12.7436L2.2953 12.0294C1.73801 11.904 1.12307 11.4503 1.2768 10.5914C2.80455 2.52294 10.059 0.0908203 16.5543 0.0908203C19.8788 0.0908203 24.2219 0.978736 26.845 3.50736C30.1695 6.62472 29.8525 10.7844 29.8525 15.3109V26.0044C29.8525 29.2183 31.1784 30.6274 32.4275 32.3646C32.8695 32.9823 32.9656 33.7254 32.4083 34.1887C31.0151 35.3565 28.5361 37.528 27.1717 38.7441L27.1525 38.7248Z" fill="#101010"/>
</g>
<defs>
<clipPath id="clip0_89_970">
<rect width="221" height="67" fill="white"/>
</clipPath>
</defs>
</svg>
